<svg id="visual" viewBox="0 0 900 600" width="900" height="600" xmlns="http://www.w3.org/2000/svg" xmlns:xlink="http://www.w3.org/1999/xlink" version="1.1"><rect x="0" y="0" width="900" height="600" fill="#917760"></rect><path d="M0 22L64 13L129 51L193 18L257 24L321 61L386 67L450 29L514 16L579 31L643 29L707 17L771 39L836 43L900 21L900 601L836 601L771 601L707 601L643 601L579 601L514 601L450 601L386 601L321 601L257 601L193 601L129 601L64 601L0 601Z" fill="#917760"></path><path d="M0 98L64 90L129 82L193 110L257 64L321 122L386 76L450 110L514 96L579 73L643 107L707 102L771 105L836 71L900 76L900 601L836 601L771 601L707 601L643 601L579 601L514 601L450 601L386 601L321 601L257 601L193 601L129 601L64 601L0 601Z" fill="#937962"></path><path d="M0 121L64 108L129 149L193 149L257 165L321 133L386 161L450 114L514 146L579 116L643 129L707 144L771 151L836 140L900 107L900 601L836 601L771 601L707 601L643 601L579 601L514 601L450 601L386 601L321 601L257 601L193 601L129 601L64 601L0 601Z" fill="#957b63"></path><path d="M0 189L64 195L129 171L193 152L257 166L321 199L386 151L450 179L514 181L579 187L643 154L707 212L771 198L836 170L900 158L900 601L836 601L771 601L707 601L643 601L579 601L514 601L450 601L386 601L321 601L257 601L193 601L129 601L64 601L0 601Z" fill="#987e65"></path><path d="M0 218L64 239L129 205L193 198L257 207L321 238L386 217L450 247L514 221L579 235L643 230L707 205L771 213L836 245L900 220L900 601L836 601L771 601L707 601L643 601L579 601L514 601L450 601L386 601L321 601L257 601L193 601L129 601L64 601L0 601Z" fill="#9a8067"></path><path d="M0 297L64 300L129 286L193 245L257 272L321 270L386 285L450 298L514 245L579 293L643 304L707 269L771 265L836 245L900 268L900 601L836 601L771 601L707 601L643 601L579 601L514 601L450 601L386 601L321 601L257 601L193 601L129 601L64 601L0 601Z" fill="#9c8268"></path><path d="M0 297L64 318L129 353L193 333L257 312L321 292L386 335L450 328L514 334L579 350L643 318L707 294L771 294L836 316L900 294L900 601L836 601L771 601L707 601L643 601L579 601L514 601L450 601L386 601L321 601L257 601L193 601L129 601L64 601L0 601Z" fill="#9e846a"></path><path d="M0 391L64 379L129 384L193 393L257 365L321 353L386 345L450 394L514 387L579 343L643 344L707 361L771 355L836 388L900 369L900 601L836 601L771 601L707 601L643 601L579 601L514 601L450 601L386 601L321 601L257 601L193 601L129 601L64 601L0 601Z" fill="#a1866c"></path><path d="M0 391L64 406L129 441L193 397L257 410L321 409L386 389L450 418L514 427L579 414L643 407L707 385L771 415L836 417L900 393L900 601L836 601L771 601L707 601L643 601L579 601L514 601L450 601L386 601L321 601L257 601L193 601L129 601L64 601L0 601Z" fill="#a3886e"></path><path d="M0 434L64 479L129 491L193 484L257 474L321 458L386 484L450 480L514 435L579 491L643 439L707 459L771 450L836 433L900 464L900 601L836 601L771 601L707 601L643 601L579 601L514 601L450 601L386 601L321 601L257 601L193 601L129 601L64 601L0 601Z" fill="#a58b6f"></path><path d="M0 504L64 514L129 520L193 490L257 512L321 496L386 522L450 488L514 479L579 491L643 501L707 529L771 478L836 485L900 479L900 601L836 601L771 601L707 601L643 601L579 601L514 601L450 601L386 601L321 601L257 601L193 601L129 601L64 601L0 601Z" fill="#a88d71"></path><path d="M0 523L64 525L129 544L193 522L257 525L321 543L386 562L450 555L514 582L579 526L643 526L707 531L771 574L836 567L900 579L900 601L836 601L771 601L707 601L643 601L579 601L514 601L450 601L386 601L321 601L257 601L193 601L129 601L64 601L0 601Z" fill="#aa8f73"></path></svg>